PathFileType  4	(X/Y/Z) /Users/kristensteudel/Documents/NMBL_Research/BertecForceProcessing/anc_files/
DataRate	CameraRate	NumFrames	NumMarkers	Units	OrigDataRate	OrigDataStartFrame	OrigNumFrames
  200.0		  200.0		    10		     46		 mm	  200.0	      1	    636
Frame#	Time	r_knee			r_shank_antsup			r_ankle			r_calc			r_5meta			r_toe			L_knee			L_shank_antsup			L_ankle			L_calc			L_5meta			L_toe			r_sh2			r_sh3			r_sh4			L_sh2			L_sh3			r_thigh1			r_thigh2			r_thigh3			r_thigh4			r_thigh5			L_thigh1			L_thigh2			L_thigh3			L_thigh4			r.ASIS			r.PSIS			L.ASIS			L.PSIS			C7			R_Shoulder			L_Shoulder			Sternum			R_humerus			R_elbow_med			R_elbow_lat			R_forearm			R_wrist_radius			R_wrist_ulna			L_humerus			L_elbow_med			L_elbow_lat			L_forearm			L_wrist_radius			L_wrist_ulna			
		X1	Y1	Z1	X2	Y2	Z2	X3	Y3	Z3	X4	Y4	Z4	X5	Y5	Z5	X6	Y6	Z6	X7	Y7	Z7	X8	Y8	Z8	X9	Y9	Z9	X10	Y10	Z10	X11	Y11	Z11	X12	Y12	Z12	X13	Y13	Z13	X14	Y14	Z14	X15	Y15	Z15	X16	Y16	Z16	X17	Y17	Z17	X18	Y18	Z18	X19	Y19	Z19	X20	Y20	Z20	X21	Y21	Z21	X22	Y22	Z22	X23	Y23	Z23	X24	Y24	Z24	X25	Y25	Z25	X26	Y26	Z26	X27	Y27	Z27	X28	Y28	Z28	X29	Y29	Z29	X30	Y30	Z30	X31	Y31	Z31	X32	Y32	Z32	X33	Y33	Z33	X34	Y34	Z34	X35	Y35	Z35	X36	Y36	Z36	X37	Y37	Z37	X38	Y38	Z38	X39	Y39	Z39	X40	Y40	Z40	X41	Y41	Z41	X42	Y42	Z42	X43	Y43	Z43	X44	Y44	Z44	X45	Y45	Z45	X46	Y46	Z46	

1	0.00000	609.039	574.752	-177.619	499.074	512.554	-173.413	179.689	478.671	-228.295	175.982	546.572	-302.023	68.915	384.223	-207.656	93.398	328.204	-257.605	1111.176	619.182	-457.492	1179.580	520.948	-459.492	1252.733	209.601	-420.032	1204.600	172.650	-365.568	1419.950	184.667	-428.341	1443.246	225.662	-365.491	382.979	490.198	-192.858	481.652	583.465	-158.801	372.587	572.313	-195.349	1094.210	497.713	-479.727	1136.927	383.090	-460.495	799.997	722.119	-143.235	738.850	626.488	-164.614	685.289	620.313	-155.081	700.247	773.119	-123.761	645.415	673.786	-156.734	1053.000	850.597	-466.947	1125.787	735.285	-436.965	960.464	785.987	-504.264	1035.677	674.220	-468.296	912.103	1006.525	-178.039	709.247	1088.557	-248.339	904.824	1023.392	-439.684	710.070	1084.621	-356.670	793.482	1558.534	-311.970	895.097	1535.375	-140.251	806.692	1540.862	-501.137	944.468	1464.755	-357.286	898.878	1324.831	-31.404	775.864	1198.598	-30.822	811.398	1239.458	46.181	955.599	1265.223	-54.127	1038.367	1275.580	-126.983	1052.134	1233.830	-102.699	637.576	1406.773	-594.557	501.160	1348.203	-525.200	527.124	1394.328	-607.629	650.284	1283.254	-605.456	748.855	1223.871	-535.459	715.737	1199.441	-597.459
2	0.00500	617.590	571.960	-176.414	506.529	517.035	-171.037	185.675	500.673	-227.425	187.237	569.096	-301.099	68.442	414.168	-207.766	88.792	356.689	-258.041	1104.184	610.643	-459.536	1173.321	516.805	-460.013	1255.939	207.633	-416.992	1209.752	170.537	-361.284	1424.076	185.038	-425.884	1446.830	228.155	-364.519	389.480	500.136	-191.673	492.969	588.517	-159.526	383.220	582.701	-195.003	1088.440	490.098	-478.325	1135.116	378.510	-455.574	805.444	721.045	-141.497	746.072	624.420	-162.092	692.361	617.529	-152.959	704.466	770.706	-123.054	651.776	670.218	-155.740	1049.207	840.640	-467.087	1117.917	722.987	-437.949	955.050	780.238	-507.267	1025.703	665.527	-469.261	913.151	1007.825	-178.018	709.272	1088.969	-248.550	903.189	1023.823	-439.946	709.339	1084.643	-356.549	795.416	1560.372	-312.905	895.290	1536.193	-141.192	808.105	1540.952	-501.683	944.708	1465.145	-357.249	896.769	1327.023	-31.621	771.297	1202.146	-31.170	807.493	1242.594	45.757	953.645	1262.818	-53.823	1037.616	1269.596	-125.896	1049.629	1227.621	-101.037	639.880	1405.588	-594.633	504.149	1344.547	-525.016	529.748	1391.272	-607.579	653.560	1280.581	-605.782	752.157	1221.267	-535.920	719.382	1197.107	-598.135
3	0.01000	627.243	568.330	-175.002	515.551	519.033	-171.900	193.762	521.741	-226.835	200.400	590.543	-300.083	71.110	442.852	-208.107	88.077	384.525	-258.887	1097.916	603.476	-461.518	1166.778	511.953	-461.167	1255.120	204.783	-413.430	1210.825	168.475	-355.614	1423.661	183.540	-424.722	1446.716	228.617	-364.681	397.668	509.110	-190.405	506.252	592.250	-159.655	395.539	591.487	-193.636	1081.916	483.110	-476.355	1131.185	372.858	-451.879	810.800	720.666	-140.869	753.451	622.406	-160.696	699.945	614.329	-150.926	708.770	767.902	-122.288	658.336	666.436	-154.807	1044.347	831.281	-467.912	1108.944	711.284	-440.160	948.530	774.782	-510.226	1016.838	658.496	-470.504	913.989	1008.635	-178.294	709.392	1089.104	-248.677	901.540	1024.255	-440.390	708.265	1084.292	-355.978	797.177	1561.854	-314.144	895.764	1536.700	-142.349	809.587	1540.549	-502.690	944.968	1465.033	-357.199	893.948	1328.937	-31.749	766.170	1205.350	-31.656	802.690	1245.398	45.274	950.881	1259.418	-53.268	1036.380	1262.365	-124.206	1046.245	1220.252	-98.875	642.620	1403.112	-595.097	507.691	1339.740	-525.478	532.919	1386.851	-608.220	657.237	1276.858	-606.378	756.123	1217.879	-536.546	723.723	1193.931	-598.874
4	0.01500	637.675	564.151	-173.209	525.548	520.262	-171.709	203.876	541.789	-226.279	214.836	610.944	-298.883	77.141	469.867	-208.578	91.075	411.008	-261.343	1092.302	598.130	-462.546	1159.365	506.256	-462.573	1250.413	200.503	-409.649	1208.145	166.401	-349.990	1418.973	178.278	-423.258	1443.747	225.892	-365.963	407.144	517.152	-189.359	520.437	593.318	-159.383	409.311	599.713	-191.690	1073.505	477.212	-471.742	1125.344	367.035	-448.266	816.653	719.697	-140.619	761.601	619.936	-160.284	708.327	610.836	-149.388	713.676	764.759	-121.330	665.617	661.977	-153.676	1038.565	822.623	-468.805	1101.258	701.479	-443.471	941.750	769.934	-513.325	1007.919	653.223	-469.431	915.094	1009.233	-178.857	709.361	1088.903	-248.654	899.876	1024.528	-440.920	707.067	1083.334	-355.211	798.975	1563.290	-315.357	896.139	1536.920	-143.523	810.956	1539.576	-503.899	945.309	1464.408	-357.101	891.087	1330.819	-31.696	760.358	1208.322	-32.326	797.175	1247.931	44.551	947.488	1255.189	-52.329	1034.226	1254.057	-121.957	1041.958	1211.559	-96.176	645.760	1399.466	-595.938	511.598	1334.137	-526.252	537.222	1380.609	-609.133	661.495	1272.176	-608.354	761.294	1213.901	-537.050	728.588	1189.848	-599.593
5	0.02000	648.709	558.336	-172.229	535.583	520.346	-170.811	216.101	560.556	-225.918	230.239	629.661	-297.120	86.025	494.526	-209.029	97.855	435.455	-261.140	1086.008	594.073	-463.123	1150.727	499.962	-463.528	1243.332	195.504	-405.295	1202.222	164.452	-344.227	1411.388	169.289	-422.741	1438.637	219.462	-368.536	417.376	524.354	-188.658	534.572	593.307	-158.053	424.167	606.338	-189.191	1064.993	470.703	-468.694	1117.857	361.559	-444.265	823.411	718.481	-140.630	770.678	617.335	-159.351	717.798	607.045	-148.597	719.636	761.139	-120.767	673.768	657.104	-152.640	1030.849	815.072	-470.108	1094.859	694.351	-446.952	934.383	765.834	-518.745	999.567	650.420	-469.209	916.006	1009.494	-179.585	709.408	1088.186	-248.493	898.405	1024.384	-441.213	705.501	1082.239	-354.592	800.132	1564.470	-316.678	896.316	1536.771	-144.469	813.550	1537.735	-504.290	945.751	1463.344	-357.011	886.835	1331.576	-31.820	753.571	1211.322	-33.614	790.905	1250.211	43.625	943.313	1250.072	-51.107	1031.326	1244.570	-120.019	1036.732	1201.948	-92.888	649.348	1394.552	-597.093	515.728	1327.563	-527.543	541.136	1373.772	-610.750	666.272	1266.486	-609.423	766.361	1209.147	-537.522	734.220	1184.923	-600.300
6	0.02500	660.542	553.053	-170.034	545.988	519.727	-169.670	229.838	578.227	-225.348	246.951	647.656	-295.262	97.763	517.127	-209.875	107.509	458.277	-262.377	1079.385	591.755	-462.995	1140.954	493.374	-463.927	1233.519	189.613	-401.837	1193.234	162.158	-339.134	1400.651	157.460	-422.607	1429.476	209.685	-371.985	428.426	530.346	-188.559	548.841	592.290	-155.464	439.559	611.713	-186.612	1055.132	464.002	-464.544	1108.829	356.362	-440.109	831.168	717.178	-140.975	780.698	614.314	-159.431	728.376	602.801	-147.838	726.487	757.128	-120.533	682.983	651.714	-151.532	1022.963	811.226	-472.516	1087.934	691.367	-449.176	926.895	762.017	-521.422	993.101	648.058	-468.269	916.430	1009.528	-181.204	709.412	1086.982	-247.716	895.860	1024.828	-441.776	703.576	1080.702	-353.531	801.483	1565.005	-318.195	896.473	1536.222	-145.268	816.073	1535.584	-504.869	946.288	1461.948	-356.901	882.470	1332.107	-31.893	746.172	1214.104	-34.651	783.954	1252.326	42.472	938.343	1244.121	-49.500	1027.480	1233.542	-115.961	1030.362	1191.215	-89.091	652.966	1388.444	-598.576	520.156	1320.324	-529.341	545.524	1365.882	-612.738	671.871	1259.887	-609.309	771.988	1203.541	-537.932	740.652	1179.245	-600.706
7	0.03000	672.948	547.643	-168.362	557.405	518.558	-169.403	245.401	594.507	-224.599	264.772	664.240	-293.824	111.326	537.299	-209.567	119.629	478.879	-263.675	1071.837	589.114	-462.903	1130.944	486.858	-463.882	1220.723	183.352	-399.002	1181.312	158.959	-335.061	1386.572	145.677	-422.226	1418.072	198.626	-373.972	440.664	535.449	-188.323	563.212	590.649	-153.395	455.515	616.212	-184.027	1044.657	458.896	-461.108	1098.366	351.377	-436.031	839.326	715.886	-141.791	791.890	611.423	-159.069	739.846	598.632	-146.999	733.718	752.916	-120.390	693.028	646.300	-150.202	1014.585	810.137	-475.884	1081.269	691.042	-450.758	919.570	758.081	-522.165	986.893	645.612	-468.552	916.986	1009.616	-182.494	709.182	1085.263	-247.263	893.780	1024.735	-442.253	701.583	1078.556	-352.462	802.761	1564.958	-319.662	896.456	1535.390	-145.811	817.931	1533.421	-506.568	946.976	1460.192	-356.739	877.117	1332.005	-31.976	739.740	1216.117	-36.581	776.506	1254.205	41.093	932.505	1237.540	-47.566	1022.756	1221.873	-112.118	1022.911	1179.892	-84.669	657.256	1381.196	-600.246	524.926	1312.080	-531.479	550.379	1357.147	-615.203	677.904	1252.469	-610.469	777.927	1197.529	-538.040	747.565	1172.767	-601.002
8	0.03500	685.731	542.323	-167.079	569.883	517.194	-169.297	262.537	609.180	-223.988	283.469	679.040	-293.492	127.108	555.474	-209.296	133.997	498.302	-263.750	1063.696	585.596	-462.858	1120.594	480.658	-463.697	1205.583	176.656	-396.830	1166.525	154.112	-331.814	1370.218	133.536	-422.408	1403.541	186.054	-374.702	453.916	539.365	-187.974	578.448	588.728	-151.046	472.264	619.308	-182.178	1034.275	454.354	-457.775	1086.576	346.537	-432.266	847.862	714.907	-142.592	803.257	608.905	-159.183	751.809	594.522	-146.577	741.490	748.562	-119.525	703.627	640.637	-149.042	1006.953	809.792	-479.933	1074.858	691.492	-452.221	912.063	754.056	-520.705	980.530	643.182	-468.958	917.210	1009.658	-183.707	708.955	1083.027	-245.993	891.935	1024.880	-442.567	698.190	1077.200	-351.111	804.019	1564.407	-320.996	896.272	1534.064	-146.236	819.688	1530.522	-508.283	947.738	1458.283	-356.500	871.468	1331.326	-31.845	732.130	1218.534	-38.611	768.185	1256.157	39.639	926.138	1230.503	-45.152	1016.808	1209.387	-107.711	1014.327	1167.868	-79.779	661.579	1373.081	-602.252	530.189	1303.188	-534.275	555.483	1347.675	-618.166	684.537	1244.248	-611.536	784.503	1190.560	-537.536	754.907	1165.557	-601.001
9	0.04000	699.576	537.267	-165.680	583.546	515.435	-169.263	281.156	622.119	-223.050	303.808	692.146	-291.916	144.705	571.744	-208.619	149.754	514.286	-264.681	1054.880	581.229	-462.971	1110.536	474.900	-463.379	1188.134	169.272	-395.190	1149.014	147.965	-330.374	1351.271	121.502	-421.560	1386.514	172.694	-374.200	468.803	541.971	-189.269	594.630	586.183	-149.389	489.660	621.269	-180.343	1023.876	450.657	-454.946	1073.564	341.776	-429.045	856.564	713.865	-143.448	815.438	606.485	-162.152	764.411	590.621	-146.009	749.494	744.200	-118.232	714.737	635.161	-147.665	1000.845	809.431	-483.851	1069.153	691.729	-453.515	905.508	751.434	-518.610	974.674	640.989	-468.845	917.238	1009.654	-184.847	708.675	1079.958	-244.714	889.833	1024.760	-443.115	696.238	1073.823	-349.773	805.010	1563.279	-322.497	895.797	1532.532	-146.278	821.859	1527.545	-510.081	948.600	1456.136	-356.245	865.291	1330.123	-31.789	724.097	1220.888	-41.076	759.784	1257.743	37.848	918.683	1222.871	-42.782	1009.850	1196.164	-102.923	1004.656	1155.213	-74.454	666.537	1364.084	-604.387	535.734	1293.827	-537.411	561.353	1337.261	-621.340	691.782	1235.365	-612.573	791.188	1183.231	-537.098	762.956	1157.692	-600.796
10	0.04500	714.120	532.484	-165.018	598.418	513.434	-169.152	301.122	633.009	-223.703	325.310	703.456	-290.576	163.570	586.095	-207.582	167.700	529.129	-264.278	1046.192	576.999	-463.258	1100.260	468.903	-463.093	1168.812	161.460	-394.186	1128.785	141.213	-329.170	1330.564	108.503	-420.301	1367.002	158.203	-372.711	484.785	544.105	-189.174	611.528	582.826	-148.960	508.063	622.547	-178.365	1012.799	447.766	-453.748	1059.437	337.024	-426.603	865.414	713.183	-144.217	827.898	604.414	-162.248	778.078	586.717	-144.560	757.794	739.697	-117.044	726.429	629.444	-146.704	995.972	808.487	-487.750	1064.655	691.458	-454.791	899.353	749.165	-516.039	969.270	638.230	-469.012	916.956	1009.507	-185.498	707.908	1076.759	-243.385	888.032	1024.278	-443.557	694.045	1070.988	-348.530	806.032	1561.403	-323.627	894.980	1530.627	-146.223	824.043	1524.054	-511.972	949.537	1453.834	-355.951	858.632	1328.506	-31.774	716.233	1222.944	-43.724	751.301	1259.045	35.705	910.113	1214.674	-40.426	1001.656	1182.400	-97.654	993.654	1142.191	-68.808	671.811	1354.315	-606.635	541.904	1283.516	-540.746	567.685	1326.212	-624.766	699.563	1225.879	-613.504	797.971	1175.260	-536.330	771.462	1149.173	-600.254
